nColumns=19
nRows=12
DataType=double
version=3
OpenSimVersion=4.5.2-2025-05-03-6a4c6ec41
endheader
time	force3_vx	force3_vy	force3_vz	force3_px	force3_py	force3_pz	moment3_x	moment3_y	moment3_z	force4_vx	force4_vy	force4_vz	force4_px	force4_py	force4_pz	moment4_x	moment4_y	moment4_z
1.181	-0.001030431014004676	0.003992703792528177	0.0001203691404675822	0.02918084053399224	-0.003000000385849433	-0.01923417120340555	2.057942060401881e-08	-0.1370272077570353	-3.34062926817698e-20	0.001133013697188835	0.001533403272485806	-0.001931496368671853	0.08946978321951242	-0.003000000868102487	-0.007735882560299507	1.845284918005316e-08	-0.1228675138424331	1.040605840301218e-18
1.182	-0.0007617094674095913	0.002992417371640496	0.000116372499879147	0.03114951372482449	-0.003000000090184734	-0.01666479206601137	1.592847634715765e-08	-0.1060590907624539	9.8206286487572e-22	0.001216454704275913	0.0004229768023922445	-0.001441900955234913	0.08853098313598107	-0.003000001009095702	-0.00897204161939622	1.859618278240555e-08	-0.1238218945598609	1.329075240588759e-18
1.183	-0.0005299020157625635	0.002113774014108772	0.0001824869263148117	0.03211920608223958	-0.002999999944551828	-0.01399164048914616	1.161892916575556e-08	-0.07736415185614698	3.338018427871474e-20	0.001217359625649969	-0.0006601721026810664	-0.0010146804916042	0.08773475981479419	-0.003000001128675928	-0.009891527246494433	1.812294565871065e-08	-0.1206708652406053	1.673716798423249e-18
1.184	-0.000374875750425052	0.001354645961509832	0.000347799403646601	0.03217126693294847	-0.002999999936733237	-0.01141960824261323	7.77932535488067e-09	-0.0517983111448739	5.8475166723883e-20	0.001130049403013954	-0.00164965982735329	-0.000656106926928847	0.08712691487630639	-0.003000001219964527	-0.01050615874046362	1.726545916871215e-08	-0.1149613278078088	2.04994233918722e-18
1.185	-0.0003117176679117365	0.0006804151486661543	0.0005974460764243471	0.03143950767364385	-0.003000000046632484	-0.009180163177833415	4.415523977887977e-09	-0.02940058095588293	7.190937264487818e-20	0.0009698231409417503	-0.002477025149539865	-0.0003444280675714976	0.08672845215953646	-0.003000001279807119	-0.01094493227164778	1.632241450902806e-08	-0.1086821049294903	2.414442545001313e-18
1.186	-0.0003434646922344917	6.604873660281648e-05	0.000879555702965702	0.03010670618152123	-0.003000000246799084	-0.007488209249843437	1.504230021030459e-09	-0.01001585241850173	7.096211937575813e-20	0.0007615922159016789	-0.003082411254578201	-5.915566082761374e-05	0.08656316257560222	-0.003000001304630743	-0.01131725242412628	1.553874583688918e-08	-0.1034640803062958	2.700385842187584e-18
1.187	-0.0004668020177790965	-0.000489656369669393	0.001129853329661363	0.02840858101080633	-0.003000000501831679	-0.006488144218211095	-9.363344380225775e-10	0.006234543528452019	5.504430640995943e-20	0.0005081709567972229	-0.00345035715851857	0.0002120374684396003	0.08669430449785169	-0.003000001284935	-0.01167090613360301	1.504426315571058e-08	-0.1001715883420081	2.828371354014969e-18
1.188	-0.0006461028582101261	-0.0009745205182928262	0.001296820368717007	0.02659273671753906	-0.003000000774543828	-0.006224555918773769	-2.841590169836799e-09	0.01892060879810682	2.594137836903481e-20	0.0001969304969051706	-0.003633845272984158	0.0004809171351566619	0.08726851068160656	-0.003000001198697889	-0.01198131144443044	1.478617835493273e-08	-0.09845314164069852	2.754476817963413e-18
1.189	-0.0008098519492873568	-0.001363829961934506	0.001364627558729162	0.02487285576904169	-0.003000001032843687	-0.006642837308902753	-4.115892328445284e-09	0.02740549620065115	-1.222670113425005e-20	-0.0001494665150430246	-0.003714588089304872	0.0007582164312108584	0.08853094391003388	-0.003000001009099651	-0.01214642074370723	1.447961896600978e-08	-0.09641192894917447	2.506828467155986e-18
1.19	-0.000893449970103529	-0.001620844295098474	0.001352623439345721	0.02343604642640009	-0.003000001248630464	-0.007578629674337263	-4.685521339342083e-09	0.03119834704544052	-5.332324221516119e-20	-0.0004544425057278901	-0.003734616650618889	0.001040367723763768	0.0907677539264846	-0.003000000673164877	-0.01203210299473579	1.372303729449297e-08	-0.09137426196959925	2.155246031292177e-18
1.191	-0.0008713976930542066	-0.001708316687627265	0.001292573370817238	0.02246329179405416	-0.003000001394723272	-0.008768214335047757	-4.571471805195261e-09	0.03043895301255752	-8.975094786423634e-20	-0.0006371051963211367	-0.003664079350471164	0.001297177383420862	0.09418121197254452	-0.003000000160515417	-0.01158195923202098	1.23350050649484e-08	-0.0821321082225803	1.762838467368759e-18
1.192	-0.0007428037239217097	-0.001605564088275295	0.001211486730574423	0.02211230374378212	-0.003000001447436203	-0.009916677619380936	-3.918538892234531e-09	0.02609142663494199	-1.131803601818148e-19	-0.0006586249535492968	-0.003425727587308948	0.001479201773700906	0.09880453840188222	-0.002999999466162004	-0.01088189556755965	1.055516190626634e-08	-0.07028109801638552	1.372451166315898e-18
